<?xml version="1.0" encoding="utf-8"?>
<!-- Generator: Adobe Illustrator 12.0.0, SVG Export Plug-In . SVG Version: 6.00 Build 51448)  -->
<!DOCTYPE svg PUBLIC "-//W3C//DTD SVG 1.1//EN" "http://www.w3.org/Graphics/SVG/1.1/DTD/svg11.dtd" >
<svg  version="1.1" id="Layer_1" xmlns="http://www.w3.org/2000/svg" xmlns:xlink="http://www.w3.org/1999/xlink" width="47.333" height="49" viewBox="0 0 47.333 49"
	 overflow="visible" enable-background="new 0 0 47.333 49" xml:space="preserve">
<g>
	<ellipse opacity="0.75" fill="#BDBEC0" enable-background="new    " cx="25.132" cy="45.667" rx="18.428" ry="2.184"/>
	<path fill="#8CC641" stroke="#046132" stroke-width="0.4831" d="M42.328,26.539c0.288,1.341,0.661,2.67,0.688,4.064
		c0.039,1.983-0.531,3.708-1.594,5.415c-1.195,1.919-2.332,3.785-4.17,5.146c-3.048,2.254-7.172,3.453-10.94,3.205
		c-1.435-0.094-2.857,0.167-4.314-0.019c-1.614-0.206-3.187-0.649-4.693-1.26c-2.357-0.957-4.879-1.073-7.074-2.514
		c-1.901-1.248-3.437-3.873-3.872-6.062c-0.223-1.121-0.351-2.431-0.292-3.592c0.046-0.907,0.309-1.788,0.355-2.694
		c0.038-0.746-0.055-1.495-0.032-2.243c0.095-2.993,0.957-5.936,2.482-8.512c4.076-6.883,12.047-10.037,19.445-8.316
		c0,0,0.391-0.301,0.391-0.328c0.477,0.014,1.047-0.135,1.531-0.141c-0.076,0.23-0.145,0.418-0.193,0.525l0.445,0.598
		c0.988,0.367,1.959,0.828,2.898,1.387c0.695,0.41,1.352,0.861,1.971,1.348l0.723,0.061c0.078-0.09,0.982,1.471,0.982,1.471
		c1.929,1.969,3.384,4.386,4.231,7.008c0.303,0.938,0.674,2.039,0.698,3.032C42.015,24.938,42.156,25.74,42.328,26.539z"/>
	
		<radialGradient id="XMLID_7_" cx="-76.7173" cy="28.0625" r="29.2031" gradientTransform="matrix(-0.7535 -0.6575 0.6575 -0.7535 -50.2913 -15.1829)" gradientUnits="userSpaceOnUse">
		<stop  offset="0" style="stop-color:#FCEE23"/>
		<stop  offset="0.927" style="stop-color:#04714E"/>
		<stop  offset="1" style="stop-color:#076E3A"/>
	</radialGradient>
	<path fill="url(#XMLID_7_)" stroke="#2B9145" stroke-width="0.4831" d="M20.212,43.52c1.346,0.316,2.729,0.469,4.112,0.458
		c2.446-0.02,8.808,0.606,13.99-4.576c1.928-1.928,3.17-4.281,3.87-6.907c0.637-2.391-0.271-4.588-0.638-6.912
		c-0.229-1.447-0.408-2.877-0.861-4.284c-0.962-2.98-2.739-5.665-5.099-7.724c-7.215-6.295-18.168-5.549-24.465,1.664
		c-2.484,2.85-3.988,6.477-4.236,10.248c-0.11,1.668,0.336,3.128-0.034,4.797c-0.574,2.589,0.213,5.7,1.827,7.756
		c1.453,1.853,3.212,2.573,5.361,3.322C16.064,42.068,18.132,43.032,20.212,43.52z"/>
	<path fill="#8CC641" stroke="#046132" stroke-width="0.4831" d="M38.951,9.525c-0.438-1.076-0.374-2.343,0.29-3.406
		c1.094-1.761,3.41-2.301,5.173-1.205c1.759,1.096,2.297,3.412,1.201,5.172c-1.096,1.763-3.412,2.301-5.17,1.203
		c-0.165-0.101-3.416,2.373-3.416,2.373c-0.14-0.142-0.232,0.87-0.308,0.686c-1.385-1.451-0.465-1.97-0.367-2.322
		C37.213,11.201,39.007,9.656,38.951,9.525z"/>
	
		<radialGradient id="XMLID_8_" cx="104.2866" cy="167.0791" r="4.2544" gradientTransform="matrix(-0.0272 0.9997 -0.9997 -0.0272 211.3107 -90.855)" gradientUnits="userSpaceOnUse">
		<stop  offset="0" style="stop-color:#FCEE23"/>
		<stop  offset="1" style="stop-color:#076E3A"/>
	</radialGradient>
	<circle opacity="0.5" fill="url(#XMLID_8_)" enable-background="new    " cx="42.428" cy="8.055" r="3.159"/>
	<path fill="#8CC641" stroke="#046132" stroke-width="0.4831" d="M29.578,7.386c0.176,0.32,1.191,0.615,0.178,2.344
		c-0.033,0.199-0.354-0.766-0.457-0.596c0,0-3.734-1.66-3.869-1.523c-1.461,1.473-3.838,1.48-5.311,0.018
		c-1.471-1.461-1.479-3.838-0.02-5.311c1.463-1.471,3.842-1.479,5.311-0.016c0.891,0.883,1.244,2.1,1.066,3.248
		C26.453,5.69,28.552,6.78,29.578,7.386z"/>
	
		<radialGradient id="XMLID_9_" cx="90.4165" cy="137.0303" r="4.2549" gradientTransform="matrix(0.2563 0.9666 0.9666 -0.2563 -131.7361 -46.8119)" gradientUnits="userSpaceOnUse">
		<stop  offset="0" style="stop-color:#FCEE23"/>
		<stop  offset="1" style="stop-color:#076E3A"/>
	</radialGradient>
	<circle opacity="0.5" fill="url(#XMLID_9_)" enable-background="new    " cx="22.755" cy="4.918" r="3.159"/>
	
		<radialGradient id="XMLID_10_" cx="-152.313" cy="-404.3428" r="5.4357" gradientTransform="matrix(0.8924 0.4511 -0.4511 0.8924 -23.9961 466.7646)" gradientUnits="userSpaceOnUse">
		<stop  offset="0" style="stop-color:#1E3319"/>
		<stop  offset="1" style="stop-color:#006E3A"/>
	</radialGradient>
	<path fill="url(#XMLID_10_)" d="M20.38,37.246c-0.181-0.113-0.34-0.271-0.467-0.482c-0.817-1.355,0.032-4.49,0.76-5.743
		c0.612-1.054,2.56-0.269,3.277,0.716c0.775,1.063,0.704,2.744,0.188,3.906C23.612,36.828,21.54,37.969,20.38,37.246z"/>
	<path fill="none" stroke="#1E3319" stroke-width="0.5378" d="M20.066,34.274c0.145-0.437,0.274-0.852,0.298-1.203
		c0.077-1.115-0.214-2.901,1.553-2.457c1.605,0.405,2.423,1.974,2.248,3.529c-0.185,1.646-2.372,5.186-4.219,3.094
		C19.282,36.486,19.721,35.316,20.066,34.274z"/>
	<g>
		
			<radialGradient id="XMLID_11_" cx="17.2744" cy="188.9824" r="3.4862" gradientTransform="matrix(0.9863 -0.165 -0.2447 -1.4628 58.2266 294.2338)" gradientUnits="userSpaceOnUse">
			<stop  offset="0" style="stop-color:#57585A"/>
			<stop  offset="1" style="stop-color:#010101"/>
		</radialGradient>
		<path fill="url(#XMLID_11_)" d="M26.757,16.667c-0.051,0.193-0.087,0.387-0.107,0.577c-0.192,1.801-0.139,3.306,0.339,5.046
			c0.326,1.187,0.643,2.85,2.274,2.607c0.918-0.137,1.889-0.737,2.761-1.107c0.591-0.25,1.572-0.323,2.086-0.672
			c1.079-0.733,0.904-2.647,0.531-3.694c-0.659-1.849-1.694-4.022-3.248-5.279C29.429,12.554,27.291,14.625,26.757,16.667z"/>
		<path fill="#FFFFFF" d="M29.142,14.983c-0.013-0.031-0.03-0.062-0.053-0.091c-0.31-0.406-1.029,0.19-0.563,0.555
			C28.86,15.707,29.284,15.323,29.142,14.983z"/>
		<path fill="#FFFFFF" d="M27.353,17.632c0.002,0.672,0.14,1.482,0.478,2.074c-0.011-0.678,0.03-1.224,0.255-1.841
			c0.119-0.324,0.888-1.994-0.196-1.707C27.446,16.276,27.352,17.266,27.353,17.632z"/>
	</g>
	<g>
		
			<radialGradient id="XMLID_12_" cx="16.249" cy="206.4092" r="3.9343" gradientTransform="matrix(0.9984 0.057 0.0845 -1.4807 -17.5142 320.9097)" gradientUnits="userSpaceOnUse">
			<stop  offset="0" style="stop-color:#57585A"/>
			<stop  offset="1" style="stop-color:#010101"/>
		</radialGradient>
		<path fill="url(#XMLID_12_)" d="M23.354,19.152c0.639-1.898,0.785-4.355-0.708-5.933c-0.354-0.375-0.719-0.428-1.244-0.397
			c-0.874,0.05-1.89,0.529-2.641,1.018c-1.696,1.105-3.481,2.96-4.063,4.924c-1.356,4.582,5.161,6.067,7.482,2.736
			C22.667,20.803,23.069,20,23.354,19.152z"/>
		<path fill="#FFFFFF" d="M20.426,14.646c0.135-0.101,0.171-0.266-0.032-0.461c-0.396-0.38-1.323-0.014-0.683,0.464
			C19.915,14.801,20.252,14.776,20.426,14.646z"/>
		<path fill="#FFFFFF" d="M17.992,15.394c-0.132,0.099-0.248,0.198-0.306,0.247c-0.534,0.453-0.915,1.079-1.191,1.716
			c0.396-0.585,1.072-0.825,1.658-1.167c0.277-0.162,1.254-0.82,0.416-1.066C18.442,15.086,18.197,15.24,17.992,15.394z"/>
	</g>
	<path fill="none" stroke="#1E3319" stroke-width="0.5378" d="M26.279,28.083c-1.229,0.913-1.695,2.957-1.688,4.438
		c0.008,1.505,0.277,3.877,1.313,5.063"/>
	<path fill="none" stroke="#1E3319" stroke-width="0.5378" d="M17.949,32.787c0.633,0.841,0.97,1.851,1.105,2.884
		c0.064,0.492,0.292,1.993-0.346,2.228"/>
	<g>
		<circle opacity="0.73" fill="#EDD1E5" stroke="#CE91C0" stroke-width="0.328" cx="12.709" cy="32.218" r="11.967"/>
		<path fill="#FFFFFF" d="M11.69,24.333c0.45-0.587-0.247-1.216-0.84-1.49C9.262,22.108,6.822,23.32,5.573,24.3
			C4.4,25.221,3.482,26.62,2.945,28.001c-0.736,1.893-0.771,3.99-0.252,5.986c0.165,0.634,0.48,1.636,1.038,2.054
			c-0.078-1.184-0.474-2.324-0.376-3.516c0.096-1.168,0.471-2.308,1.029-3.334c1.097-2.021,2.998-3.761,5.295-4.239
			c0.585-0.121,1.324-0.024,1.829-0.435C11.583,24.457,11.643,24.395,11.69,24.333z"/>
		<path fill="#FFFFFF" d="M12.492,23.567c0.707,0.679,2.104,0.291,2.191-0.765c0.063-0.768-0.994-1.264-1.688-1.069
			C12.213,21.952,11.872,22.971,12.492,23.567z"/>
	</g>
</g>
</svg>
